PathFileType	4	(X/Y/Z)	c:\Git\powerlifing_model_clean\simulations\HC835B\Session1\HC835B_OGR_0005\marker_experimental.trc
DataRate	CameraRate	NumFrames	NumMarkers	Units	OrigDataRate	OrigDataStartFrame	OrigNumFrames
240.000000	240.000000	4	38	mm	240.000000	27	218
Frame#	Time	RPSI			LPSI			RASI			LASI			RTH1			RTH2			RTH3			RTH4			RSK1			RSK2			RSK3			RSK4			RCAL1			RCAL2			RCAL3			RST			RPT			RTN			RFMB			RSMB			RVMB			RFMH			RSMH			RVMH			RPM			LTH1			LTH2			LTH3			LTH4			LSK1			LSK2			LSK3			LSK4			LCAL1			LCAL2			LCAL3			LFMH			LVMH			
		X1	Y1	Z1	X2	Y2	Z2	X3	Y3	Z3	X4	Y4	Z4	X5	Y5	Z5	X6	Y6	Z6	X7	Y7	Z7	X8	Y8	Z8	X9	Y9	Z9	X10	Y10	Z10	X11	Y11	Z11	X12	Y12	Z12	X13	Y13	Z13	X14	Y14	Z14	X15	Y15	Z15	X16	Y16	Z16	X17	Y17	Z17	X18	Y18	Z18	X19	Y19	Z19	X20	Y20	Z20	X21	Y21	Z21	X22	Y22	Z22	X23	Y23	Z23	X24	Y24	Z24	X25	Y25	Z25	X26	Y26	Z26	X27	Y27	Z27	X28	Y28	Z28	X29	Y29	Z29	X30	Y30	Z30	X31	Y31	Z31	X32	Y32	Z32	X33	Y33	Z33	X34	Y34	Z34	X35	Y35	Z35	X36	Y36	Z36	X37	Y37	Z37	X38	Y38	Z38	

28	0.1125	485.5861816406251	1116.509155273438	-60.04533767700197	373.4993591308594	1117.509887695313	-71.83212280273439	549.3088989257814	1062.010864257813	-265.1202392578126	317.0695495605469	1054.091064453125	-272.0379028320313	616.0646972656251	794.0467529296877	-243.0797271728516	611.2065429687501	799.0989990234377	-303.5333557128907	600.5322875976564	723.4724731445314	-286.4706420898438	585.4486694335939	728.3290405273439	-342.9192810058594	513.2790527343751	293.8125305175782	-244.1394958496094	513.1190185546876	273.1887512207032	-302.3742370605469	502.5843200683595	236.7370758056641	-254.507064819336	490.217498779297	219.7501068115235	-310.7569885253907	424.0767822265626	98.1879577636719	-181.7136688232422	392.7290649414064	60.69474029541017	-189.2755889892578	456.6723937988282	61.99861526489259	-180.8580932617188	384.6825561523439	73.0175247192383	-259.0220947265626	484.0257568359376	70.8207244873047	-239.5233764648438	402.7659301757814	91.04766082763673	-314.5332641601563	408.589569091797	74.57369232177736	-346.1846313476563	457.6718139648439	96.79232025146487	-353.0252685546876	497.3174743652345	44.63558959960938	-280.4696350097657	410.1814575195314	48.14834594726564	-400.7135620117189	466.0065917968751	59.55522918701173	-411.1498413085939	520.8071289062501	38.7176628112793	-356.5726318359376	459.0953674316407	44.23108673095704	-469.529510498047	232.5503387451172	774.6253662109377	-129.1537628173828	232.4656829833985	755.6462402343751	-187.0320434570313	230.7895050048829	689.6389770507814	-139.9159088134766	242.9014129638672	670.8882446289064	-195.8288116455079	290.2201232910157	594.2648925781251	174.1059112548828	276.8103332519532	546.0791625976564	192.8353271484376	293.0209045410157	577.7387695312501	227.8411102294922	294.4105834960938	524.3593750000001	243.3755187988282	374.6449890136719	626.3384399414064	347.8366699218751	354.9776000976563	639.4572143554689	389.4664611816407	410.4345703125001	622.2888183593751	379.1073303222657	373.4907531738282	410.2983398437501	424.1060180664064	288.1615600585938	472.8292541503907	461.7436523437501	
29	0.1166666666666667	483.9114379882814	1112.699951171875	-71.21855926513673	372.5660095214844	1111.49462890625	-82.65901947021486	550.0092163085939	1058.607543945313	-277.9870605468751	318.5414123535157	1048.97998046875	-283.9606018066407	615.6466674804689	791.628356933594	-255.3971557617188	611.6139526367189	796.483825683594	-315.9877319335938	599.7570800781251	721.0922851562501	-298.8363342285157	585.0041503906251	726.1129150390626	-355.3569641113282	511.9708557128907	294.4630432128907	-249.5707702636719	512.2492065429689	272.0642700195313	-307.2061767578126	501.4453430175782	237.1245269775391	-258.4384460449219	489.5089721679689	218.4184112548829	-314.2988281250001	423.337860107422	98.67237091064456	-182.3524322509766	392.1453552246095	61.0697593688965	-189.6390686035157	456.1384582519532	62.79591369628908	-181.2317810058594	383.9296264648438	72.72380828857423	-259.4876708984376	483.2633666992189	71.27834320068361	-240.0043945312501	401.6884155273439	90.49685668945314	-315.2658386230469	407.7555236816407	73.8265838623047	-346.5978698730469	456.7164611816407	96.44229888916018	-353.5862731933594	496.8283691406251	45.17696380615235	-280.7436828613282	409.8945922851564	47.64805984497071	-401.220672607422	465.5089721679689	59.29072189331056	-411.4616088867189	520.4525756835939	38.96373748779298	-356.7378234863282	458.9436035156251	43.00550079345704	-470.0685424804689	232.0071716308594	771.2546386718752	-146.6032104492188	232.0347900390626	753.3526611328126	-204.7724761962891	230.0811309814454	686.4726562500001	-158.5849914550782	242.2413635253907	668.6512451171876	-214.8131256103516	289.5569152832032	593.7442626953126	150.7135772705078	276.0714721679688	545.9602050781251	170.2315673828125	292.3974609375001	577.8253173828126	204.6710357666016	293.8384094238282	524.8898315429689	221.0923309326172	373.9024658203126	628.3990478515626	324.7945861816407	353.7963562011719	641.6716308593751	366.2243652343751	409.7516479492189	624.9501953125001	356.1843872070313	373.9907531738282	412.9978332519532	402.0762023925782	287.3965759277344	474.9873352050782	439.1439208984376	
30	0.1208333333333333	482.3605346679689	1110.152465820313	-82.46710205078126	372.0474243164063	1106.124633789063	-94.4543914794922	550.9284057617189	1055.589965820313	-290.8848876953126	319.9913635253907	1044.206909179688	-295.8757934570313	615.3040161132814	789.038757324219	-267.5614318847657	611.9210205078126	793.834655761719	-328.1326904296876	598.8768310546876	718.6767578125001	-311.0160522460938	584.5792846679689	723.7247924804689	-367.5431518554688	511.0863647460939	295.1602172851563	-254.7884979248047	511.5878906250001	271.2676391601563	-311.7561340332032	500.7329406738282	237.6605987548829	-262.1062622070313	489.1298828125001	217.2993621826172	-317.4660034179688	423.7778930664064	98.06106567382815	-184.3929748535157	392.1438293457032	61.46715545654298	-189.8960876464844	456.099578857422	63.23432540893556	-181.4481506347657	383.8016052246094	72.79769134521486	-259.7302551269532	483.2049255371095	71.54834747314455	-240.2669677734376	401.3674926757814	90.09326934814455	-315.7576293945313	407.7623291015626	73.45291900634767	-346.9401855468751	456.6189270019532	96.04327392578128	-353.8851623535157	496.9324951171876	45.27238845825196	-280.8343200683594	410.1640625000001	47.40690231323243	-401.5172729492189	465.6231689453126	58.79779052734376	-411.7152099609376	520.5827636718751	38.85874938964844	-356.8515319824219	459.2149047851564	41.92052078247071	-470.421356201172	231.5532379150391	768.3140869140627	-164.2525787353516	231.8195953369141	751.2178955078126	-222.7250213623047	229.3300781250001	683.6574707031251	-177.6270446777344	241.8165283203126	666.7714843750001	-234.087631225586	288.8003234863282	592.9360351562501	127.1717300415039	275.4581909179688	545.3480224609376	147.2972564697266	291.8165893554688	577.8724365234376	181.3538818359375	293.3232727050782	525.0518188476564	198.4026947021485	373.0126953125001	630.0021972656251	301.7081909179688	352.3969421386719	643.3973999023439	342.9479675292969	408.5896911621095	626.7825927734376	333.4718322753907	373.9629516601563	414.8893432617189	379.8447875976563	286.7009582519532	476.5174255371095	415.967987060547	
31	0.125	481.3280334472657	1108.445190429688	-94.71968078613283	372.6278686523438	1104.101196289063	-107.3234405517578	552.6875610351564	1053.118408203125	-303.7689514160157	321.6237487792969	1038.884887695313	-308.0516052246094	615.1381835937501	786.550476074219	-279.4270324707032	612.0817871093751	791.2498168945315	-339.9702758789063	598.3080444335939	716.1985473632814	-322.8396301269532	584.3301391601564	721.3670654296876	-379.4335327148438	510.7814941406251	295.6212768554688	-259.7898254394532	511.1816406250001	270.3086547851563	-316.2525634765626	500.4749450683595	237.8935089111329	-265.7364807128907	488.9609985351564	216.1721343994141	-320.5787353515626	423.748992919922	98.64078521728518	-184.3922424316407	392.3287048339845	61.78343963623048	-189.9935760498047	456.261932373047	63.46751785278322	-181.5982055664063	383.8040771484376	72.78453063964845	-259.8641357421876	483.2969665527345	71.56165313720705	-240.5126495361329	401.137664794922	89.71640014648439	-316.1011657714844	407.6408691406251	73.12746429443361	-347.1732482910157	456.5277099609376	95.70748901367189	-354.1050720214844	497.1267089843751	45.2740707397461	-280.8888854980469	410.2310791015626	47.13600540161134	-401.7093505859376	465.6678161621095	58.49121475219728	-411.8845825195314	520.7374267578126	38.76165008544923	-356.9783020019532	459.2496643066407	41.23371124267579	-470.6522521972657	231.2288208007813	765.5725097656251	-182.1149597167969	231.5739440917969	749.4324340820314	-240.8599548339844	228.8276824951172	681.1735229492189	-196.8010711669922	241.4789428710938	665.1475830078126	-253.5449829101563	287.9742431640626	592.0498046875001	103.5501937866211	274.8385925292969	544.6286621093751	124.1724166870117	291.1750793457032	577.8061523437501	157.9829254150391	292.8618469238282	524.8883056640626	175.5080871582032	372.0538940429688	631.1674194335939	278.7135314941407	350.9794616699219	644.5437622070314	319.7111206054688	407.4456787109376	628.3539428710939	310.6908569335938	374.2245483398438	416.1758728027345	357.1995239257813	286.0664672851563	477.2281188964845	392.5930786132814	
